<?xml version="1.0" standalone="no"?>
<!DOCTYPE svg PUBLIC "-//W3C//DTD SVG 20010904//EN"
 "http://www.w3.org/TR/2001/REC-SVG-20010904/DTD/svg10.dtd">
<svg version="1.0" xmlns="http://www.w3.org/2000/svg"
 width="400.000000pt" height="400.000000pt" viewBox="0 0 400.000000 400.000000"
 preserveAspectRatio="xMidYMid meet">
<metadata>
Created by potrace 1.14, written by Peter Selinger 2001-2017
</metadata>
<g transform="translate(0.000000,400.000000) scale(0.100000,-0.100000)"
fill="#000000" stroke="none">
<path d="M0 3010 l1 -990 23 0 c13 0 26 -6 29 -14 4 -9 17 -12 38 -10 26 3 30
1 21 -8 -7 -7 -12 -19 -11 -27 0 -10 4 -7 9 7 5 12 14 22 20 22 6 0 8 6 4 13
-5 8 -2 7 9 -2 14 -11 23 -12 43 -2 14 6 23 7 20 2 -4 -5 -1 -11 6 -14 7 -2 5
-3 -4 -2 -10 2 -18 -1 -18 -6 0 -5 6 -9 13 -9 8 0 7 -4 -3 -10 -11 -8 -9 -9
13 -8 15 1 27 6 27 10 0 5 16 8 35 6 19 -1 35 -6 35 -10 0 -4 7 -5 15 -2 8 4
15 1 15 -6 0 -7 8 -10 19 -7 14 3 18 1 14 -9 -3 -8 1 -14 10 -14 8 0 18 6 20
13 3 7 6 4 6 -7 1 -16 3 -16 21 5 l19 24 1 -23 c0 -13 -4 -20 -10 -17 -5 3
-10 1 -10 -4 0 -16 16 -13 30 4 11 13 15 13 21 3 10 -15 26 -17 56 -6 13 4 25
3 28 -2 4 -6 15 -10 25 -10 10 0 22 -5 26 -12 4 -6 3 -8 -3 -5 -6 4 -16 1 -22
-7 -16 -19 75 -48 104 -33 18 9 19 9 6 -6 -12 -15 -11 -17 10 -18 13 0 32 -2
42 -4 9 -2 17 3 17 11 0 8 9 14 20 14 16 0 20 -7 20 -32 0 -23 3 -29 9 -19 6
9 18 11 40 6 26 -6 30 -9 20 -21 -13 -16 -2 -18 20 -5 7 5 11 14 7 20 -5 7 -1
8 10 4 11 -4 15 -2 11 4 -4 6 0 14 9 17 11 4 15 2 11 -8 -3 -7 -1 -18 4 -23
13 -13 20 -53 10 -53 -5 0 -11 -10 -14 -22 -4 -12 -9 -19 -12 -16 -4 3 -2 15
3 25 7 12 7 25 1 34 -5 8 -9 9 -9 2 0 -6 -9 -9 -22 -6 -20 4 -21 3 -5 -7 9 -6
22 -8 29 -4 7 4 8 3 4 -5 -4 -7 -16 -9 -28 -5 -16 5 -19 3 -14 -14 5 -14 1
-21 -14 -25 -11 -3 -20 -1 -20 4 0 5 4 9 10 9 5 0 7 7 4 15 -8 19 -20 11 -46
-29 -16 -25 -18 -26 -13 -7 5 16 4 21 -4 17 -6 -4 -11 0 -11 11 0 15 -2 16
-10 3 -8 -13 -10 -12 -10 3 0 20 -15 23 -26 5 -4 -6 -2 -14 4 -16 9 -3 9 -9 1
-23 -7 -15 -7 -24 2 -35 7 -9 8 -14 1 -14 -6 0 -14 5 -17 10 -8 13 -36 -14
-33 -31 2 -6 -6 -13 -17 -15 -11 -2 -33 -8 -50 -13 l-30 -9 28 -1 c19 -1 27
-6 26 -18 0 -11 -3 -13 -6 -5 -2 6 -9 12 -14 12 -6 0 -7 -4 -4 -10 3 -6 -1 -7
-10 -4 -12 5 -16 2 -13 -9 2 -9 0 -16 -4 -16 -28 -3 -37 1 -34 12 1 6 1 9 -1
5 -3 -5 -13 -8 -23 -8 -13 0 -17 -5 -13 -20 4 -14 0 -20 -11 -20 -10 0 -13 5
-9 17 5 12 2 15 -10 10 -8 -3 -18 -1 -21 6 -2 7 -5 5 -5 -5 -1 -9 5 -19 11
-21 8 -3 6 -6 -4 -6 -10 -1 -18 5 -18 13 0 8 -5 18 -12 22 -7 4 -8 3 -4 -4 4
-7 2 -12 -3 -12 -6 0 -11 -5 -11 -11 0 -5 5 -7 10 -4 6 3 10 1 10 -5 0 -7 -8
-9 -21 -5 -14 5 -20 3 -18 -7 4 -30 -2 -59 -10 -53 -6 3 -8 15 -6 27 4 17 2
19 -7 10 -7 -7 -12 -24 -13 -40 0 -22 -4 -27 -22 -25 -13 2 -22 -2 -20 -8 1
-6 -4 -13 -11 -14 -7 -2 -8 -1 -3 1 6 3 7 12 4 20 -3 8 0 14 6 14 6 0 11 5 11
12 0 6 -11 1 -25 -12 -13 -12 -23 -26 -21 -29 1 -3 -5 -14 -16 -23 -12 -12
-18 -14 -18 -5 0 6 -5 4 -11 -6 -5 -9 -7 -22 -4 -27 3 -6 1 -10 -6 -10 -6 0
-9 8 -6 20 7 28 -4 31 -28 7 -11 -11 -15 -17 -8 -13 6 3 14 2 18 -4 3 -5 -2
-10 -13 -10 -10 0 -24 10 -30 23 -11 20 -12 20 -11 2 1 -11 1 -27 0 -35 -1
-13 -3 -13 -10 0 -6 8 -8 17 -5 21 2 4 -4 6 -13 4 -13 -2 -18 -11 -16 -34 1
-25 -2 -30 -12 -21 -10 8 -19 8 -32 1 -10 -6 -31 -16 -47 -21 -18 -7 -26 -15
-22 -25 3 -8 1 -17 -4 -20 -5 -3 -11 3 -13 12 -3 10 -5 -118 -6 -284 l-1 -303
23 -1 c21 -1 21 -1 -3 -8 l-25 -7 27 -6 c19 -3 28 -1 28 8 0 16 22 13 46 -6
13 -11 16 -11 10 -2 -6 10 -1 10 22 -2 32 -17 45 -38 36 -61 -4 -8 -1 -15 6
-15 6 0 8 5 5 10 -3 6 -2 10 4 10 6 0 8 8 4 18 -3 11 0 9 11 -6 10 -12 21 -20
25 -17 5 2 7 -6 6 -18 -3 -21 1 -22 62 -20 35 1 70 7 77 12 10 8 20 6 37 -8
18 -14 29 -17 47 -10 20 8 25 6 29 -11 10 -37 31 -16 24 23 -1 5 3 6 9 2 6 -3
8 -10 5 -15 -3 -5 4 -14 15 -20 11 -6 20 -7 20 -3 0 4 6 -2 14 -12 8 -11 19
-16 30 -12 10 4 19 1 22 -8 5 -11 11 -12 26 -4 11 6 27 7 36 3 20 -9 28 -11
43 -13 5 0 8 -5 5 -10 -3 -5 3 -11 14 -14 11 -3 18 -1 15 3 -3 5 -1 12 5 15 6
4 9 1 8 -7 -2 -8 7 -13 22 -13 17 0 24 5 22 15 -1 8 9 2 22 -14 15 -17 28 -26
36 -21 7 4 16 2 20 -5 4 -6 23 -12 43 -13 32 -1 34 -2 19 -15 -16 -13 -16 -13
1 -8 9 3 24 9 34 13 9 4 14 2 10 -3 -3 -6 6 -10 21 -9 25 0 27 4 30 45 6 79
-6 122 -49 179 -61 81 -83 128 -87 195 -3 34 -11 70 -18 81 -7 11 -23 47 -35
79 -20 54 -21 69 -14 180 9 151 9 225 0 297 -13 97 25 187 134 322 41 50 68
94 65 100 -4 7 -4 9 0 6 3 -3 28 15 54 40 26 25 81 72 122 104 78 59 134 107
305 258 55 48 129 112 165 142 36 29 66 61 68 70 3 15 -34 78 -50 85 -5 2 -8
9 -8 15 0 7 -18 32 -40 56 -21 24 -40 46 -42 50 -2 3 -22 21 -45 39 -54 42
-152 86 -228 101 -60 13 -111 8 -306 -25 -24 -4 -48 -1 -72 11 -36 17 -45 29
-54 75 -2 13 -8 27 -13 30 -15 9 -40 77 -40 109 0 17 15 51 35 81 19 29 35 53
35 55 0 2 -11 6 -24 9 -33 8 -93 78 -105 123 -17 59 -13 156 7 199 31 69 62
101 126 130 52 23 73 27 141 26 44 -1 105 -6 134 -11 104 -17 277 -11 411 14
43 8 229 45 250 50 9 1 43 6 75 10 49 6 65 13 85 37 37 43 95 49 137 14 35
-29 55 -32 113 -14 38 12 54 28 28 28 -8 0 -14 15 -15 38 l-1 37 10 -35 10
-35 15 40 c9 22 17 56 19 75 3 36 21 111 23 97 1 -4 16 0 34 9 89 47 330 6
432 -72 18 -13 37 -24 43 -24 7 0 11 -3 10 -7 -4 -18 14 -52 31 -58 10 -3 39
-7 64 -10 50 -5 111 -27 121 -43 3 -6 15 -8 26 -5 12 3 20 0 20 -6 0 -7 -4
-10 -9 -7 -5 3 -11 -1 -15 -9 -3 -8 -1 -17 5 -20 5 -4 9 -12 7 -18 -1 -7 4
-36 10 -65 15 -65 15 -65 0 -56 -8 5 -7 0 2 -11 8 -10 10 -16 4 -12 -8 5 -11
-11 -9 -54 2 -37 -1 -56 -6 -48 -6 10 -10 5 -15 -18 -3 -17 -15 -41 -26 -52
-18 -20 -18 -21 -1 -22 14 0 15 -2 3 -6 -17 -7 -110 -65 -110 -69 0 -2 7 0 17
3 12 5 14 3 8 -7 -5 -9 -4 -11 4 -6 6 4 20 2 29 -6 15 -11 16 -11 6 2 -18 26
-11 45 17 45 21 1 25 -3 21 -21 -2 -12 -13 -32 -23 -43 -10 -11 -15 -22 -10
-26 5 -3 12 4 16 15 10 30 22 24 20 -10 -1 -16 2 -27 6 -24 4 2 7 -5 6 -16 -1
-11 -5 -20 -10 -20 -4 0 -5 -4 -2 -10 3 -5 -1 -10 -10 -10 -9 0 -14 -4 -10
-10 3 -5 12 -7 19 -4 11 4 13 -8 9 -58 -2 -35 -4 -84 -5 -110 -2 -44 -4 -48
-28 -49 -23 -2 -23 -2 -2 -6 24 -5 24 -14 0 -92 -8 -25 -13 -30 -19 -20 -6 9
-7 1 -3 -21 4 -26 3 -31 -5 -20 -8 12 -10 11 -9 -5 0 -11 -3 -28 -7 -37 -4
-10 -3 -18 3 -18 9 0 42 75 42 98 0 7 5 12 10 12 6 0 10 -4 10 -10 0 -5 7 -10
15 -10 18 0 18 -5 5 -30 -8 -16 -8 -18 5 -14 8 3 13 9 11 13 -2 3 3 13 12 21
14 13 15 12 9 -4 -4 -10 -7 -24 -7 -31 0 -7 -8 -12 -17 -11 -10 0 -17 -4 -16
-11 2 -7 -4 -10 -11 -7 -8 3 -13 13 -10 22 2 9 -3 1 -12 -18 -15 -32 -15 -35
3 -48 17 -13 17 -14 -4 -7 -14 4 -23 2 -23 -4 0 -6 9 -11 19 -11 10 0 22 -7
25 -16 10 -25 7 -29 -6 -11 -7 9 -24 18 -38 20 -20 3 -24 9 -22 28 2 21 1 22
-8 6 -6 -9 -9 -21 -5 -26 9 -15 -13 -61 -30 -61 -18 0 -19 -4 -3 -30 9 -15 9
-30 -1 -69 -7 -27 -15 -65 -18 -83 -3 -18 -9 -35 -14 -36 -6 -2 -5 -10 2 -18
9 -11 8 -14 -5 -14 -9 0 -16 -5 -16 -11 0 -5 5 -7 11 -3 8 4 9 0 4 -15 -4 -14
-2 -21 6 -21 7 0 5 -6 -6 -13 -10 -8 -15 -19 -11 -25 4 -7 1 -12 -8 -12 -9 0
-16 -4 -16 -10 0 -5 4 -10 10 -10 6 0 7 -23 4 -57 -8 -92 -8 -117 -1 -136 3
-9 2 -17 -3 -17 -5 0 -8 -12 -7 -27 1 -19 10 -32 27 -40 l25 -12 -25 2 c-22 2
-25 -2 -25 -33 -1 -50 3 -57 36 -64 16 -3 29 -11 29 -17 0 -6 -8 -9 -17 -5
-15 5 -15 4 1 -9 12 -9 15 -15 7 -15 -11 0 -11 -3 -1 -15 7 -8 10 -21 7 -29
-4 -10 -1 -13 7 -10 8 3 21 -5 30 -18 13 -18 16 -19 16 -5 0 9 -4 17 -10 17
-5 0 -7 7 -4 15 4 8 10 13 14 10 5 -3 13 2 18 11 8 15 10 15 15 0 4 -9 14 -16
24 -16 15 0 16 2 3 10 -13 8 -12 10 4 10 13 0 17 -5 13 -20 -4 -15 0 -20 14
-20 10 0 19 -7 19 -15 0 -13 2 -14 14 -3 8 7 12 16 9 21 -2 4 3 7 11 7 18 0
22 16 5 22 -6 2 -1 12 10 22 20 18 20 18 17 0 -11 -55 -19 -73 -34 -77 -12 -3
-10 -5 6 -6 14 -1 23 -8 24 -21 0 -11 1 -24 2 -30 1 -5 -3 -9 -9 -7 -5 1 -10
12 -9 25 0 12 -5 21 -10 19 -6 -2 -10 -13 -9 -23 1 -19 1 -19 -12 0 -13 17
-14 15 -9 -20 2 -22 2 -33 -2 -26 -3 6 -10 12 -15 12 -6 0 -7 -5 -4 -10 3 -6
-4 -10 -16 -10 -18 0 -19 2 -9 15 7 8 19 15 26 15 8 0 11 6 7 16 -5 13 -10 11
-28 -12 -13 -16 -21 -34 -18 -41 3 -8 -2 -11 -16 -8 -12 2 -21 0 -21 -6 0 -5
8 -9 19 -9 10 0 25 -8 32 -17 10 -11 10 -14 2 -9 -8 4 -13 2 -13 -5 0 -7 -3
-9 -7 -6 -3 4 -12 2 -20 -4 -10 -9 -13 -8 -13 4 0 8 6 18 13 21 6 2 1 3 -12 2
-14 -2 -27 -8 -29 -14 -2 -7 -8 -10 -13 -7 -5 4 -6 -1 -3 -9 7 -17 34 -30 34
-15 0 6 4 8 9 4 5 -3 13 0 17 6 5 8 9 8 14 -2 6 -9 12 -9 25 4 9 10 22 17 28
16 9 0 8 -2 -1 -6 -6 -2 -12 -12 -12 -20 0 -13 3 -13 15 -3 11 9 15 9 15 1 0
-6 -11 -16 -25 -21 -31 -12 -31 -15 0 -16 14 -1 23 2 20 6 -3 5 -1 11 5 15 5
3 10 15 10 26 0 15 6 20 23 17 12 -2 22 -8 22 -15 0 -6 3 -15 7 -19 4 -3 5 4
2 17 -3 13 -8 34 -11 46 -5 20 -2 21 56 18 52 -3 60 -1 50 11 -9 11 -9 14 0
14 7 0 9 5 6 10 -4 6 -12 7 -18 3 -9 -5 -9 -3 0 8 13 16 0 51 -29 84 -33 36
-36 42 -27 56 7 11 9 11 9 -3 0 -21 10 -23 34 -5 17 13 17 14 1 30 -9 9 -13
17 -8 17 8 0 43 -36 43 -44 0 -2 -12 -7 -27 -12 -27 -8 -27 -8 12 -14 37 -7
38 -7 8 -9 -26 -1 -30 -4 -26 -22 3 -11 15 -25 27 -29 11 -5 15 -9 9 -9 -7 -1
-13 -6 -13 -13 0 -6 3 -8 7 -5 3 4 12 2 19 -4 10 -9 15 -7 20 5 7 19 34 22 34
4 0 -9 3 -8 9 2 6 8 7 18 4 24 -3 5 -1 6 5 2 7 -4 12 -13 12 -21 0 -17 20 -24
45 -14 26 10 75 11 75 1 0 -4 -7 -17 -15 -29 -14 -20 -14 -22 5 -28 16 -5 18
-10 11 -19 -6 -7 -7 -16 -3 -21 4 -4 -8 -5 -26 -2 -30 6 -32 5 -22 -13 9 -16
8 -20 -5 -20 -8 0 -15 4 -15 10 0 6 -9 6 -26 0 -14 -6 -30 -8 -35 -4 -5 3 -9
0 -9 -6 0 -7 12 -9 33 -5 21 4 39 1 52 -9 20 -14 20 -15 -5 -25 -14 -5 -20
-10 -15 -11 6 0 3 -5 -5 -10 -13 -8 -12 -10 3 -10 9 0 17 5 17 11 0 8 4 8 14
0 14 -12 46 -5 46 10 0 14 -18 11 -23 -3 -2 -7 -8 -10 -12 -6 -4 4 -2 15 6 24
10 13 11 18 2 21 -16 6 -5 33 14 33 8 0 12 -4 9 -9 -3 -5 4 -11 17 -15 41 -11
52 -6 20 10 -27 14 -33 27 -23 54 1 3 2 8 1 12 0 4 8 10 19 13 11 4 17 11 14
17 -4 7 -2 8 4 4 17 -10 15 -26 -8 -44 -17 -15 -17 -19 -5 -30 9 -7 15 -8 15
-2 0 5 5 10 10 10 6 0 10 -6 9 -12 -3 -25 1 -38 12 -38 6 0 9 7 6 15 -8 20 8
28 22 11 9 -11 9 -15 -1 -19 -9 -4 -7 -6 4 -6 23 -1 32 15 12 23 -13 5 -14 9
-5 20 15 18 -11 29 -30 13 -11 -10 -11 -9 0 5 11 15 11 19 -3 24 -9 3 -16 13
-16 20 0 8 -7 17 -15 20 -17 7 -21 24 -5 24 5 0 16 -12 24 -27 8 -16 15 -22
16 -15 0 6 4 12 10 12 5 0 9 -10 7 -22 -1 -17 4 -24 19 -26 18 -3 20 1 16 29
-3 23 -1 30 7 24 7 -4 10 -13 7 -21 -6 -16 19 -19 29 -4 17 28 79 -15 69 -48
-5 -14 -4 -14 6 1 8 12 18 15 35 11 15 -4 25 -1 28 8 2 7 3 2 2 -12 -3 -26 21
-51 63 -64 19 -6 21 -10 11 -22 -6 -8 -16 -14 -21 -14 -6 0 -4 8 3 17 12 15
12 16 -5 10 -11 -4 -22 -4 -25 1 -3 5 -23 12 -44 15 -33 5 -36 4 -22 -9 8 -9
20 -12 26 -8 8 5 10 1 7 -13 -7 -28 8 -54 21 -35 6 11 10 10 15 -3 9 -25 8
-25 -19 -15 -18 7 -25 6 -25 -2 0 -18 -10 -3 -15 22 -6 34 -22 47 -37 31 -11
-10 -9 -11 5 -5 16 6 18 3 16 -18 -2 -14 2 -33 10 -42 9 -10 10 -16 2 -16 -6
0 -11 6 -11 13 0 8 -4 7 -10 -3 -8 -13 -10 -13 -10 2 0 20 -20 28 -41 15 -10
-6 -14 -19 -11 -34 2 -13 1 -23 -4 -22 -19 3 -34 -1 -34 -11 0 -5 7 -10 15
-10 8 0 15 -4 15 -10 0 -20 19 -10 22 12 4 26 38 33 55 11 7 -9 22 -17 33 -18
24 -2 24 -1 5 19 -14 14 -13 17 13 30 32 16 44 13 35 -10 -3 -8 -1 -14 5 -14
5 0 12 9 15 21 3 12 10 18 17 14 6 -4 9 -13 6 -21 -7 -19 11 -18 22 2 8 14 10
13 15 -5 4 -15 0 -21 -11 -21 -15 0 -15 -2 -2 -10 9 -6 10 -10 3 -10 -6 0 -15
5 -18 10 -4 6 -15 8 -25 5 -12 -4 -23 1 -32 14 -10 14 -18 17 -28 10 -13 -7
-13 -9 -1 -9 8 0 11 -3 8 -7 -4 -3 1 -12 11 -20 16 -12 16 -13 -2 -6 -11 4
-17 2 -13 -3 3 -5 -5 -11 -18 -12 -18 -1 -29 6 -39 26 -9 15 -15 21 -16 13 0
-8 -6 -11 -16 -7 -12 4 -15 2 -10 -9 5 -14 2 -17 -26 -19 -7 -1 -16 -7 -19
-15 -3 -9 -11 -2 -22 20 -14 29 -17 30 -17 12 0 -13 -4 -23 -9 -23 -4 0 -6 11
-3 25 2 14 8 25 13 25 5 0 6 7 3 15 -4 8 -11 15 -16 15 -6 0 -7 -7 -4 -16 5
-13 4 -14 -7 -6 -11 9 -17 4 -30 -23 -15 -31 -15 -36 -1 -50 15 -14 34 -19 61
-16 7 1 10 -5 7 -12 -3 -9 -14 -13 -27 -11 -12 2 -15 1 -7 -2 8 -4 23 -16 33
-28 13 -16 16 -17 11 -4 -3 10 -2 18 4 18 5 0 8 -15 5 -35 -3 -22 1 -42 9 -52
11 -15 11 -16 -4 -10 -15 5 -17 1 -13 -28 2 -19 0 -37 -5 -40 -5 -3 -15 -19
-24 -35 -8 -17 -11 -28 -7 -26 4 3 13 1 21 -5 12 -7 11 -9 -4 -9 -10 0 -25 -8
-32 -18 -11 -14 -15 -14 -22 -4 -5 8 -13 14 -18 15 -5 1 -8 5 -7 9 3 8 -12 12
-34 9 -7 -1 -13 5 -13 14 0 13 -14 20 -23 13 -2 -2 -16 5 -31 16 -16 10 -26
14 -23 9 4 -5 0 -10 -7 -10 -8 0 -12 6 -9 13 3 8 -2 11 -14 8 -10 -3 -36 4
-57 16 -31 15 -42 17 -48 7 -6 -9 -8 -9 -8 1 0 7 -4 11 -9 7 -5 -3 -17 2 -25
11 -9 8 -16 11 -16 5 0 -6 -5 -11 -11 -11 -5 0 -7 4 -4 10 3 6 -1 7 -9 4 -10
-4 -18 1 -22 11 -5 12 -16 15 -43 13 -23 -2 -35 1 -34 9 3 12 -14 12 -34 0 -7
-4 -16 0 -21 9 -11 20 -36 9 -28 -12 3 -8 2 -14 -3 -14 -5 0 -14 15 -21 33 -7
17 -20 52 -30 77 -10 25 -25 80 -34 122 -10 43 -21 80 -25 83 -5 2 -7 20 -5
40 2 27 -2 38 -18 46 -19 10 -19 9 -13 -21 5 -23 3 -35 -6 -41 -11 -7 -10 -9
3 -9 9 0 19 -9 23 -19 6 -19 -1 -77 -12 -94 -3 -5 4 -4 15 2 14 7 23 8 27 1 3
-5 0 -10 -7 -10 -10 0 -10 -2 1 -9 11 -7 11 -9 0 -13 -11 -4 -10 -8 4 -22 9
-10 17 -31 17 -47 0 -18 4 -28 10 -24 5 3 10 -1 10 -10 0 -10 -5 -13 -12 -9
-7 4 -8 3 -4 -5 4 -6 11 -9 16 -6 7 4 7 -40 0 -70 -5 -21 1 -29 10 -15 8 13
10 12 10 -3 0 -18 24 -61 49 -87 8 -8 10 -15 3 -18 -5 -1 -8 -13 -5 -25 4 -18
3 -19 -7 -7 -10 13 -11 13 -7 0 2 -8 11 -14 21 -12 9 2 16 -2 16 -8 0 -5 -6
-10 -12 -10 -9 0 -10 -3 -2 -8 12 -8 11 -25 -5 -74 -12 -35 -78 -114 -88 -105
-3 4 2 13 11 22 19 20 21 32 3 16 -8 -6 -18 -7 -22 -3 -5 4 -5 1 -1 -6 4 -7 1
-15 -9 -18 -12 -5 -13 -9 -4 -20 9 -11 7 -14 -12 -16 -13 0 -33 0 -44 0 -16 2
-17 0 -5 -8 13 -8 12 -10 -2 -10 -10 0 -18 -4 -18 -10 0 -5 10 -9 21 -7 12 1
23 -4 25 -11 1 -7 0 -8 -3 -2 -2 5 -9 10 -14 10 -6 0 -7 -4 -4 -10 3 -6 -1 -7
-9 -4 -9 3 -16 1 -16 -5 0 -6 8 -11 18 -11 14 0 15 -2 2 -10 -22 -14 -5 -23
19 -10 15 7 21 7 21 0 0 -16 -43 -29 -57 -18 -8 7 -10 3 -6 -11 3 -12 10 -18
15 -15 6 4 7 -2 3 -17 -8 -24 -7 -24 13 -6 11 10 32 44 47 74 29 63 41 67 20
8 -10 -30 -10 -41 -2 -44 7 -2 16 -9 20 -15 5 -6 7 -2 4 12 -3 14 -1 22 6 21
36 -4 68 2 61 12 -4 7 -1 10 7 7 7 -2 22 5 34 17 11 12 26 20 32 18 7 -3 16 3
19 12 5 13 9 14 15 4 6 -10 13 -9 33 5 14 9 26 12 26 6 0 -5 -5 -10 -11 -10
-5 0 -7 -5 -4 -10 3 -6 -1 -13 -10 -16 -11 -5 -13 -10 -5 -19 13 -16 0 -28
-17 -14 -10 9 -13 8 -13 -5 0 -10 5 -14 10 -11 6 3 10 2 10 -4 0 -6 7 -8 15
-5 8 4 15 17 15 31 0 22 2 24 15 13 12 -10 19 -10 27 -2 9 9 8 12 -4 12 -9 0
-19 3 -21 8 -3 4 12 7 33 8 27 0 37 -3 33 -13 -3 -7 0 -13 6 -13 6 0 11 9 11
20 0 11 5 20 11 20 5 0 7 -5 4 -10 -10 -15 5 -12 22 5 8 9 13 19 9 22 -3 4 1
15 11 25 9 10 13 21 9 25 -4 4 -11 1 -16 -7 -5 -8 -17 -15 -27 -15 -10 -1 -17
-7 -15 -14 1 -7 -2 -10 -8 -6 -20 12 20 55 52 55 16 0 27 4 23 9 -3 5 -1 12 5
16 5 3 10 0 10 -7 0 -9 3 -9 10 2 8 12 10 12 10 1 0 -8 9 -2 21 13 11 14 18
31 14 38 -3 7 0 5 7 -6 19 -27 51 -63 44 -50 -3 7 10 16 34 22 22 5 38 6 35 2
-3 -4 7 -11 22 -15 22 -5 24 -8 12 -16 -12 -9 -12 -10 1 -6 8 2 14 11 14 20
-1 9 4 13 11 10 15 -5 38 30 27 41 -3 4 2 4 13 0 11 -5 14 -9 7 -12 -17 -5
-15 -19 3 -19 8 0 15 7 15 14 0 12 3 11 16 -1 20 -20 38 -21 30 -1 -3 8 -1 15
5 15 6 0 7 5 3 12 -4 7 -3 8 4 4 6 -4 9 -13 6 -20 -3 -7 2 -16 10 -19 10 -4
14 0 11 13 -2 10 3 21 11 24 9 3 12 10 9 16 -3 5 -1 10 4 10 6 0 11 -4 11 -10
0 -5 8 -10 18 -10 14 0 15 2 2 10 -8 5 -12 12 -8 15 3 3 13 -1 22 -10 9 -9 16
-13 16 -9 0 3 6 1 14 -5 10 -9 16 -8 26 4 10 12 9 15 -5 15 -10 0 -16 3 -12 6
3 4 20 1 37 -4 l31 -11 -2 287 c-1 256 -3 284 -16 257 -9 -19 -12 -22 -10 -9
3 12 1 28 -4 35 -7 11 -9 10 -9 -3 0 -10 -4 -18 -10 -18 -11 0 9 51 25 62 6 4
1 8 -10 9 -14 0 -16 2 -5 6 29 12 53 46 29 40 -6 -1 -14 4 -16 11 -3 6 2 12
11 12 10 0 16 9 16 25 0 18 -5 25 -19 25 -22 0 -33 22 -24 46 3 9 0 20 -8 25
-11 7 -11 9 -1 9 7 0 11 4 8 8 -3 5 1 9 8 9 8 0 12 -9 10 -21 -1 -12 -4 -30
-6 -41 -2 -12 4 -21 14 -23 15 -3 16 8 15 90 -1 63 -6 93 -14 93 -6 0 -15 3
-19 8 -4 4 2 7 14 7 17 0 22 6 22 26 0 14 -4 23 -9 19 -5 -3 -12 -1 -16 5 -3
5 1 10 9 10 14 0 16 105 16 1045 l0 1045 -2000 0 -2000 0 0 -990z m2960 810
c0 -5 -2 -10 -4 -10 -3 0 -8 5 -11 10 -3 6 -1 10 4 10 6 0 11 -4 11 -10z m140
-494 c0 -2 -7 -7 -16 -10 -8 -3 -12 -2 -9 4 6 10 25 14 25 6z m35 -326 c3 -5
1 -10 -4 -10 -6 0 -11 5 -11 10 0 6 2 10 4 10 3 0 8 -4 11 -10z m7 -44 c7 4 8
2 4 -5 -9 -13 -26 -5 -25 12 0 9 2 8 6 -1 2 -6 10 -9 15 -6z m-25 -63 c-3 -10
-5 -2 -5 17 0 19 2 27 5 18 2 -10 2 -26 0 -35z m13 -33 c0 -5 -7 -7 -15 -4 -8
4 -15 8 -15 10 0 2 7 4 15 4 8 0 15 -4 15 -10z m-20 -65 c0 -5 -5 -3 -10 5 -5
8 -10 20 -10 25 0 6 5 3 10 -5 5 -8 10 -19 10 -25z m46 -90 c-1 -8 -5 -17 -8
-21 -5 -4 -4 16 1 34 3 9 9 -1 7 -13z m-34 -22 c-10 -4 -10 -8 -1 -19 9 -11 8
-14 -5 -14 -9 0 -16 8 -16 20 0 13 6 20 18 19 11 0 12 -2 4 -6z m292 -289 c3
-8 2 -12 -4 -9 -6 3 -10 10 -10 16 0 14 7 11 14 -7z m-172 -46 c-6 -6 -7 0 -4
19 5 21 7 23 10 9 2 -10 0 -22 -6 -28z m74 27 c-3 -9 0 -15 8 -15 10 0 13 -14
12 -47 -1 -36 -5 -47 -19 -49 -10 -1 -16 3 -14 9 3 7 8 11 13 10 5 -1 9 14 9
32 0 18 -3 31 -8 28 -4 -2 -14 3 -23 11 -14 15 -14 16 0 16 9 0 16 5 16 10 0
6 3 10 6 10 3 0 4 -7 0 -15z m-92 -17 c-3 -5 -10 -6 -15 -3 -5 4 -9 -2 -9 -11
0 -10 -3 -15 -6 -11 -11 10 3 34 20 34 8 0 13 -4 10 -9z m141 -8 c3 -5 1 -10
-4 -10 -6 0 -11 5 -11 10 0 6 2 10 4 10 3 0 8 -4 11 -10z m45 -15 c7 -8 8 -15
2 -15 -5 0 -15 7 -22 15 -7 8 -8 15 -2 15 5 0 15 -7 22 -15z m28 -10 c-3 -3
-9 2 -12 12 -6 14 -5 15 5 6 7 -7 10 -15 7 -18z m-278 0 c-7 -9 -15 -13 -17
-11 -7 7 7 26 19 26 6 0 6 -6 -2 -15z m149 -13 c0 -11 -2 -13 -6 -4 -4 10 -8
10 -19 1 -11 -9 -14 -8 -14 4 0 16 19 28 33 20 4 -2 7 -12 6 -21z m-117 -9
c-10 -4 -10 -9 2 -22 15 -16 15 -19 -1 -33 -24 -20 -53 -30 -53 -18 0 6 5 10
10 10 6 0 11 8 11 18 1 16 2 16 6 -1 5 -20 23 -13 23 9 0 8 -7 14 -15 14 -8 0
-14 6 -12 13 2 13 29 27 37 19 3 -2 -1 -7 -8 -9z m39 -30 c0 -15 2 -15 9 2 6
13 9 15 9 5 1 -12 3 -13 10 -1 12 18 27 7 39 -28 9 -25 8 -29 -4 -24 -7 3 -12
8 -10 12 2 3 0 15 -5 26 -6 17 -8 17 -8 3 -1 -12 -6 -15 -18 -11 -16 6 -16 5
-4 -10 7 -9 9 -17 4 -17 -5 0 -17 14 -26 30 -10 17 -13 30 -8 30 6 0 11 -8 12
-17z m-197 -9 c3 -8 2 -12 -4 -9 -6 3 -10 10 -10 16 0 14 7 11 14 -7z m106 1
c7 -9 8 -15 2 -15 -5 0 -12 7 -16 15 -3 8 -4 15 -2 15 2 0 9 -7 16 -15z m264
-17 c-3 -4 -12 -8 -20 -8 -8 0 -13 4 -10 8 3 5 12 9 20 9 8 0 13 -4 10 -9z
m-433 -21 c-10 -9 -11 -8 -5 6 3 10 9 15 12 12 3 -3 0 -11 -7 -18z m46 7 c-3
-3 -12 -4 -19 -1 -8 3 -5 6 6 6 11 1 17 -2 13 -5z m53 -24 c-12 -8 -9 -10 10
-10 l25 0 -25 -13 c-22 -11 -25 -11 -28 6 -4 19 17 41 27 31 3 -3 -1 -9 -9
-14z m171 -32 c7 -14 6 -16 -6 -12 -8 3 -12 11 -8 17 4 7 0 8 -13 3 -10 -4
-15 -4 -12 0 4 4 2 16 -4 28 l-11 21 22 -20 c13 -11 27 -28 32 -37z m-71 34
c0 -4 -10 -9 -22 -9 -18 -2 -20 0 -8 7 18 12 30 13 30 2z m-154 -19 c19 -25
18 -54 -1 -47 -8 4 -15 10 -15 16 0 5 5 6 10 3 6 -3 10 -1 10 4 0 6 -4 11 -9
11 -5 0 -11 7 -15 15 -7 20 4 19 20 -2z m255 -7 c5 3 9 -6 9 -20 0 -14 -4 -26
-10 -26 -5 0 -7 6 -4 14 3 8 1 17 -5 21 -6 3 -11 12 -10 18 0 9 2 8 6 -1 2 -6
9 -10 14 -6z m66 -6 c4 -12 3 -13 -5 -1 -5 7 -14 11 -20 7 -6 -3 -13 -2 -16 2
-3 5 4 9 16 8 12 0 23 -8 25 -16z m-194 3 c-7 -2 -19 -2 -25 0 -7 3 -2 5 12 5
14 0 19 -2 13 -5z m672 -3 c3 -5 1 -10 -4 -10 -6 0 -11 5 -11 10 0 6 2 10 4
10 3 0 8 -4 11 -10z m-636 -21 c-16 -10 -23 -4 -14 10 3 6 11 8 17 5 6 -4 5
-9 -3 -15z m708 15 c-3 -3 -12 -4 -19 -1 -8 3 -5 6 6 6 11 1 17 -2 13 -5z
m-767 -32 c0 -12 -3 -13 -12 -4 -7 7 -20 12 -31 12 -10 0 -16 4 -13 9 9 14 56
0 56 -17z m350 24 c0 -11 -19 -15 -25 -6 -3 5 1 10 9 10 9 0 16 -2 16 -4z
m-405 -26 c7 0 15 -9 18 -21 3 -12 10 -18 16 -14 7 3 8 0 5 -9 -5 -13 -12 -10
-35 15 -28 30 -29 30 -29 8 0 -18 -3 -20 -12 -11 -15 15 -31 16 -22 0 5 -7 2
-9 -8 -6 -17 7 -21 -23 -4 -34 7 -5 4 -8 -6 -8 -10 0 -18 6 -18 14 0 8 -7 16
-15 20 -22 8 -18 43 5 49 11 3 20 1 20 -4 0 -17 50 -10 57 8 4 11 8 12 11 5 2
-7 10 -12 17 -12z m85 4 c0 -8 -4 -12 -10 -9 -5 3 -10 10 -10 16 0 5 5 9 10 9
6 0 10 -7 10 -16z m90 -21 c0 -7 -26 3 -32 12 -15 20 -8 24 12 8 11 -10 20
-19 20 -20z m80 14 c0 -14 -20 -37 -32 -37 -4 0 -8 5 -8 11 0 5 5 7 12 3 7 -5
9 -2 5 8 -6 17 0 28 15 28 4 0 8 -6 8 -13z m73 -29 c-3 -15 -9 -25 -14 -22 -5
3 -6 -2 -3 -10 4 -10 1 -16 -9 -16 -10 0 -13 7 -10 20 5 19 3 19 -22 10 -15
-6 -30 -8 -33 -5 -10 9 5 15 41 17 36 1 53 19 41 41 -5 8 -4 9 4 2 6 -5 8 -22
5 -37z m207 32 c0 -5 -2 -10 -4 -10 -3 0 -8 5 -11 10 -3 6 -1 10 4 10 6 0 11
-4 11 -10z m-45 -10 c-3 -5 -12 -10 -18 -10 -7 0 -6 4 3 10 19 12 23 12 15 0z
m-379 -19 c-4 -6 -14 -7 -23 -4 -15 6 -14 7 3 13 22 9 29 6 20 -9z m-43 -11
c3 -11 1 -20 -4 -20 -5 0 -9 9 -9 20 0 11 2 20 4 20 2 0 6 -9 9 -20z m437 10
c0 -5 -5 -10 -11 -10 -5 0 -7 5 -4 10 3 6 8 10 11 10 2 0 4 -4 4 -10z m192
-15 c3 -13 1 -22 -3 -19 -9 5 -13 44 -5 44 2 0 6 -11 8 -25z m78 15 c-12 -8
-12 -10 -1 -10 8 0 12 -3 8 -6 -9 -9 -28 6 -22 17 4 5 12 9 18 9 7 0 6 -4 -3
-10z m-360 -8 c0 -4 -9 -8 -19 -8 -11 0 -17 4 -15 8 3 4 12 8 20 8 8 0 14 -4
14 -8z m27 -12 c-4 -15 0 -20 13 -20 11 0 22 -5 26 -11 4 -8 0 -9 -15 -4 -13
4 -21 2 -21 -5 0 -6 -8 -4 -17 6 -13 13 -14 19 -5 22 6 2 12 10 12 18 0 8 3
14 6 14 4 0 4 -9 1 -20z m104 -7 c12 -15 12 -16 -1 -8 -8 5 -24 8 -35 7 -17
-2 -17 -1 -5 7 20 14 25 14 41 -6z m-543 -23 c-3 -22 -1 -30 11 -31 12 0 11
-3 -4 -9 l-20 -9 20 -2 c11 -1 32 -1 47 0 15 0 30 -3 33 -9 4 -6 -1 -7 -11 -3
-14 5 -16 2 -12 -14 3 -13 -1 -27 -12 -36 -16 -13 -17 -12 -17 12 0 14 2 20 4
14 3 -7 9 -13 15 -13 6 0 5 6 -2 15 -9 11 -16 13 -24 5 -13 -13 -29 -13 -21 0
3 5 -4 19 -16 31 -16 16 -18 23 -9 29 7 4 10 17 7 29 -3 12 -1 21 5 21 6 0 8
-13 6 -30z m-108 10 c0 -5 -2 -10 -4 -10 -3 0 -8 5 -11 10 -3 6 -1 10 4 10 6
0 11 -4 11 -10z m338 -3 c6 3 12 0 12 -7 0 -6 -4 -8 -10 -5 -5 3 -10 0 -10 -7
0 -11 -2 -11 -9 0 -9 15 -61 6 -73 -12 -5 -7 -8 -5 -8 5 0 18 49 39 70 29 8
-4 21 -5 28 -3z m132 9 c0 -3 -4 -8 -10 -11 -5 -3 -10 -1 -10 4 0 6 5 11 10
11 6 0 10 -2 10 -4z m-385 -16 c3 -6 -1 -7 -9 -4 -18 7 -21 14 -7 14 6 0 13
-4 16 -10z m295 6 c0 -3 -4 -8 -10 -11 -5 -3 -10 -1 -10 4 0 6 5 11 10 11 6 0
10 -2 10 -4z m257 -28 c-3 -7 -5 -2 -5 12 0 14 2 19 5 13 2 -7 2 -19 0 -25z
m-17 12 c0 -5 -2 -10 -4 -10 -3 0 -8 5 -11 10 -3 6 -1 10 4 10 6 0 11 -4 11
-10z m-594 -36 c-9 -8 -16 -11 -16 -4 0 15 24 40 28 29 2 -5 -4 -16 -12 -25z
m179 26 c3 -5 1 -10 -4 -10 -6 0 -11 5 -11 10 0 6 2 10 4 10 3 0 8 -4 11 -10z
m265 0 c0 -5 -8 -10 -17 -10 -15 0 -16 2 -3 10 19 12 20 12 20 0z m43 -15 c10
-14 16 -25 13 -25 -9 0 -46 34 -46 42 0 15 15 7 33 -17z m-3409 3 c-3 -4 9 -8
27 -8 36 0 34 -10 -4 -14 -14 -2 -28 4 -35 14 -7 13 -7 17 4 17 7 0 11 -4 8
-9z m3192 -13 c3 -19 -10 -19 -25 -1 -9 11 -9 15 1 19 16 5 21 1 24 -18z m95
2 c-10 -9 -11 -8 -5 6 3 10 9 15 12 12 3 -3 0 -11 -7 -18z m206 17 c-3 -3 -12
-4 -19 -1 -8 3 -5 6 6 6 11 1 17 -2 13 -5z m-280 -26 c-3 -8 -6 -5 -6 6 -1 11
2 17 5 13 3 -3 4 -12 1 -19z m33 -3 c0 -14 -2 -25 -4 -25 -2 0 -6 11 -8 25 -3
14 -1 25 3 25 5 0 9 -11 9 -25z m17 -7 c-3 -7 -5 -2 -5 12 0 14 2 19 5 13 2
-7 2 -19 0 -25z m-134 5 c-3 -7 -6 -13 -8 -13 -2 0 -5 6 -8 13 -3 8 1 14 8 14
7 0 11 -6 8 -14z m218 4 c-6 -8 -8 -17 -4 -20 3 -4 1 -7 -5 -7 -7 0 -12 -8
-13 -17 0 -12 -2 -14 -6 -5 -6 16 16 62 30 62 5 0 4 -6 -2 -13z m149 -18 c0
-4 -8 -5 -18 -2 -10 2 -19 10 -19 18 0 10 4 11 19 2 10 -7 18 -15 18 -18z
m-545 3 c-3 -3 -11 0 -18 7 -9 10 -8 11 6 5 10 -3 15 -9 12 -12z m595 8 c-8
-5 -22 -9 -30 -9 -10 0 -8 3 5 9 27 12 43 12 25 0z m167 -12 c-3 -8 -6 -5 -6
6 -1 11 2 17 5 13 3 -3 4 -12 1 -19z m-67 8 c0 -2 -7 -6 -15 -10 -8 -3 -15 -1
-15 4 0 6 7 10 15 10 8 0 15 -2 15 -4z m-748 -36 c-2 -8 5 -9 19 -5 18 6 21 4
15 -10 -4 -12 0 -18 14 -22 19 -5 20 -6 3 -19 -16 -12 -16 -15 -3 -23 12 -8
10 -10 -7 -8 -17 1 -20 5 -12 18 12 24 11 29 -4 29 -7 0 -21 14 -31 31 -14 23
-15 30 -5 27 8 -3 13 -11 11 -18z m75 -12 c-3 -7 -5 -2 -5 12 0 14 2 19 5 13
2 -7 2 -19 0 -25z m305 -3 c-3 -16 0 -25 8 -25 7 0 10 7 6 15 -3 8 -1 15 4 15
5 0 9 -10 8 -23 -2 -22 -28 -35 -28 -14 0 5 -6 7 -13 4 -8 -3 -20 -1 -28 4
-11 8 -9 9 6 7 15 -2 21 3 23 25 2 15 7 25 11 22 5 -2 6 -16 3 -30z m108 20
c0 -8 -4 -15 -10 -15 -5 0 -7 7 -4 15 4 8 8 15 10 15 2 0 4 -7 4 -15z m50 10
c0 -2 -9 -9 -20 -15 -12 -6 -20 -7 -20 -1 0 5 8 12 18 14 9 3 18 5 20 6 1 0 2
-1 2 -4z m85 -5 c-3 -5 -11 -10 -16 -10 -6 0 -7 5 -4 10 3 6 11 10 16 10 6 0
7 -4 4 -10z m-568 -22 c-3 -8 -6 -5 -6 6 -1 11 2 17 5 13 3 -3 4 -12 1 -19z
m73 2 c0 -5 -7 -7 -15 -4 -18 7 -20 -12 -3 -30 11 -11 17 -11 35 1 22 15 23
14 22 -13 -1 -17 -3 -22 -6 -11 -5 21 -10 21 -29 3 -12 -13 -11 -16 7 -21 17
-6 19 -9 8 -16 -12 -7 -11 -9 1 -9 12 -1 11 -3 -3 -11 -9 -6 -15 -14 -12 -20
4 -5 1 -9 -5 -9 -6 0 -8 -4 -5 -10 3 -5 1 -10 -4 -10 -14 0 -14 3 0 34 10 20
9 28 -5 41 -15 15 -16 15 -16 0 0 -9 -5 -13 -11 -10 -6 4 -8 9 -5 13 3 3 -2
11 -12 19 -15 13 -15 13 7 7 22 -6 23 -4 17 20 -4 15 -4 31 -1 36 8 13 35 13
35 0z m465 0 c3 -5 1 -10 -4 -10 -6 0 -11 5 -11 10 0 6 2 10 4 10 3 0 8 -4 11
-10z m45 0 c-8 -5 -19 -10 -25 -10 -5 0 -3 5 5 10 8 5 20 10 25 10 6 0 3 -5
-5 -10z m-422 -55 c-1 -5 2 -18 6 -27 5 -10 6 -23 3 -30 -3 -7 -6 -3 -6 9 -1
12 -5 25 -11 28 -5 3 -10 15 -10 26 0 11 -4 18 -8 15 -4 -2 -8 4 -8 15 0 18 1
18 18 -3 9 -13 17 -27 16 -33z m80 43 c6 -8 6 -21 1 -33 -8 -18 -8 -17 -6 5 2
20 -3 25 -20 25 -12 0 -25 4 -29 8 -4 4 4 7 18 7 14 0 30 -6 36 -12z m422 -2
c0 -2 -7 -6 -15 -10 -8 -3 -15 -1 -15 4 0 6 7 10 15 10 8 0 15 -2 15 -4z
m-480 -16 c0 -5 -2 -10 -4 -10 -3 0 -8 5 -11 10 -3 6 -1 10 4 10 6 0 11 -4 11
-10z m325 0 c3 -6 -1 -7 -12 -4 -17 5 -17 5 0 -6 9 -6 22 -8 29 -4 7 4 8 3 4
-4 -9 -15 -43 -16 -51 -2 -7 12 2 30 15 30 5 0 12 -4 15 -10z m435 0 c0 -5 -2
-10 -4 -10 -3 0 -8 5 -11 10 -3 6 -1 10 4 10 6 0 11 -4 11 -10z m-551 -26 c-6
-8 -17 -14 -23 -13 -6 0 -6 3 2 6 9 4 10 8 2 18 -9 11 -7 12 10 8 16 -4 18 -8
9 -19z m36 16 c3 -5 1 -10 -4 -10 -6 0 -11 5 -11 10 0 6 2 10 4 10 3 0 8 -4
11 -10z m-155 -4 c0 -3 -4 -8 -10 -11 -5 -3 -10 -1 -10 4 0 6 5 11 10 11 6 0
10 -2 10 -4z m565 -6 c-3 -5 -12 -10 -18 -10 -7 0 -6 4 3 10 19 12 23 12 15 0z
m-651 -12 c-5 -8 -2 -9 10 -5 9 4 15 3 11 -2 -3 -5 -1 -21 4 -34 8 -20 15 -24
33 -19 21 5 21 4 -6 -21 -34 -32 -40 -34 -26 -8 13 25 -5 38 -19 14 -9 -16
-10 -16 -8 4 0 12 5 19 9 17 14 -9 8 17 -7 33 -13 13 -13 33 1 33 3 0 2 -5 -2
-12z m736 2 c0 -5 -2 -10 -4 -10 -3 0 -8 5 -11 10 -3 6 -1 10 4 10 6 0 11 -4
11 -10z m-3220 -4 c0 -3 -4 -8 -10 -11 -5 -3 -10 -1 -10 4 0 6 5 11 10 11 6 0
10 -2 10 -4z m2235 -6 c3 -5 1 -10 -4 -10 -6 0 -11 5 -11 10 0 6 2 10 4 10 3
0 8 -4 11 -10z m362 4 c-3 -3 -12 -4 -19 -1 -8 3 -5 6 6 6 11 1 17 -2 13 -5z
m509 -6 c4 -7 3 -8 -4 -4 -8 5 -12 -1 -13 -16 0 -13 -3 -17 -6 -10 -5 13 2 42
11 42 3 0 8 -5 12 -12z m-408 -12 c-7 -8 -15 -12 -17 -11 -5 6 10 25 20 25 5
0 4 -6 -3 -14z m122 3 c0 -6 -7 -9 -15 -5 -8 3 -15 1 -15 -4 0 -6 -4 -10 -10
-10 -5 0 -7 7 -4 15 7 17 44 21 44 4z m444 2 c4 -5 -3 -7 -14 -4 -23 6 -26 13
-6 13 8 0 17 -4 20 -9z m-3334 -11 c0 -5 -4 -10 -9 -10 -6 0 -13 5 -16 10 -3
6 1 10 9 10 9 0 16 -4 16 -10z m3270 -25 c5 3 7 12 3 20 -3 8 0 15 6 15 21 0
11 -40 -11 -50 -19 -7 -20 -9 -4 -9 12 -1 16 -6 12 -17 -3 -9 -6 -20 -6 -25 0
-5 -7 -9 -17 -9 -14 0 -14 3 3 22 13 16 14 19 2 10 -12 -10 -18 -10 -24 -1 -4
8 -3 9 4 5 7 -4 12 -2 12 4 0 6 -10 14 -22 19 l-21 8 24 24 24 24 3 -23 c2
-12 7 -20 12 -17z m-900 7 c0 -15 -6 -18 -32 -13 -27 4 -29 6 -10 9 12 2 22 8
22 13 0 5 5 9 10 9 6 0 10 -8 10 -18z m147 -4 c-3 -8 -6 -5 -6 6 -1 11 2 17 5
13 3 -3 4 -12 1 -19z m116 15 c-7 -2 -21 -2 -30 0 -10 3 -4 5 12 5 17 0 24 -2
18 -5z m-133 -12 c0 -6 -4 -13 -10 -16 -5 -3 -10 1 -10 9 0 9 5 16 10 16 6 0
10 -4 10 -9z m621 -15 c1 5 1 12 0 17 0 4 4 7 9 7 6 0 10 -4 10 -9 0 -6 -4
-13 -10 -16 -16 -10 -12 -25 5 -19 8 4 15 1 15 -5 0 -16 16 -14 35 5 12 13 19
14 28 5 8 -8 7 -11 -7 -11 -9 0 -14 -5 -11 -10 4 -6 10 -8 15 -5 5 3 11 1 15
-4 5 -9 -6 -9 -44 1 -7 1 -16 -3 -18 -10 -3 -8 1 -10 12 -6 10 4 15 2 13 -7
-2 -8 7 -15 22 -16 22 -2 23 -2 5 6 -20 9 -20 10 1 10 29 1 61 -23 44 -34 -9
-6 -11 -4 -5 5 5 9 2 11 -11 6 -43 -12 -83 -15 -89 -6 -4 6 1 7 12 4 14 -4 15
-4 4 4 -7 5 -23 7 -34 4 -17 -4 -18 -6 -5 -11 14 -5 14 -9 4 -24 -8 -10 -20
-15 -30 -11 -9 3 -16 1 -16 -6 0 -6 4 -9 8 -6 4 2 8 -4 9 -15 2 -17 -1 -17
-20 -5 -19 11 -49 14 -91 7 -4 0 -5 -8 -2 -17 3 -8 2 -12 -4 -9 -6 3 -10 13
-10 21 0 8 -13 22 -30 33 -16 10 -27 21 -23 24 3 4 14 0 24 -9 11 -10 19 -12
24 -5 3 6 1 11 -5 11 -6 0 -8 5 -5 10 4 6 11 8 16 5 5 -4 9 -1 9 4 0 6 5 11
10 11 6 0 8 -10 4 -24 -4 -18 -1 -27 14 -35 32 -17 40 -12 13 8 l-23 18 21 20
c19 18 20 21 6 27 -9 3 -22 3 -28 0 -9 -5 -9 -3 0 6 10 10 18 10 42 0 17 -7
38 -10 46 -6 9 3 13 2 10 -4 -3 -6 -12 -10 -20 -10 -7 0 -16 -7 -19 -16 -3 -8
-2 -12 4 -9 13 8 13 -8 -1 -22 -8 -8 -8 -13 0 -17 10 -7 15 8 14 42 -1 7 4 12
11 11 22 -2 56 14 56 27 0 13 -6 15 -50 18 -10 1 -16 14 -18 36 -4 34 -4 34
17 16 12 -11 22 -15 22 -10z m-361 0 c0 -17 -27 -29 -35 -16 -4 6 2 10 12 11
13 1 11 3 -7 9 l-25 8 28 1 c17 1 27 -4 27 -13z m60 10 c0 -2 -11 -6 -25 -8
-13 -3 -22 -1 -19 3 5 9 44 13 44 5z m-2630 -16 c0 -5 -5 -10 -11 -10 -5 0 -7
5 -4 10 3 6 8 10 11 10 2 0 4 -4 4 -10z m50 -5 c0 -8 -4 -15 -10 -15 -5 0 -7
7 -4 15 4 8 8 15 10 15 2 0 4 -7 4 -15z m2438 -16 c-3 -8 -7 -3 -11 10 -4 17
-3 21 5 13 5 -5 8 -16 6 -23z m389 4 c0 -16 -1 -20 -4 -10 -2 9 -14 17 -26 18
-20 1 -20 2 3 9 14 4 25 8 25 9 0 1 1 -11 2 -26z m240 12 c0 -8 -4 -15 -9 -15
-10 0 -11 14 -1 23 9 10 10 9 10 -8z m-937 -36 c0 -19 -1 -19 -16 -5 -8 9 -12
20 -9 26 9 15 25 2 25 -21z m-2035 1 c-3 -5 -1 -10 5 -10 6 0 8 -5 4 -11 -4
-8 -9 -7 -15 2 -7 12 -3 29 7 29 3 0 2 -4 -1 -10z m2170 -18 c5 -14 4 -15 -6
-4 -7 6 -21 12 -32 12 -10 0 -16 4 -13 9 9 14 44 1 51 -17z m125 18 c0 -5 -4
-10 -10 -10 -5 0 -10 5 -10 10 0 6 5 10 10 10 6 0 10 -4 10 -10z m330 0 c0 -5
-4 -10 -10 -10 -5 0 -10 5 -10 10 0 6 5 10 10 10 6 0 10 -4 10 -10z m363 -10
c-3 -12 -8 -19 -11 -16 -5 6 5 36 12 36 2 0 2 -9 -1 -20z m-496 -12 c-3 -8 -6
-5 -6 6 -1 11 2 17 5 13 3 -3 4 -12 1 -19z m-57 -35 c0 -12 -3 -14 -8 -7 -10
16 -52 -1 -52 -20 0 -8 -4 -17 -8 -20 -5 -3 -6 8 -4 24 2 17 7 28 11 26 3 -2
15 0 26 5 30 12 35 11 35 -8z m47 11 c-3 -3 -12 -4 -19 -1 -8 3 -5 6 6 6 11 1
17 -2 13 -5z m43 -4 c-8 -5 -19 -10 -25 -10 -5 0 -3 5 5 10 8 5 20 10 25 10 6
0 3 -5 -5 -10z m-240 -45 c0 -3 -6 -4 -12 -2 -7 1 -12 -6 -12 -15 1 -14 -2
-15 -17 -5 -22 14 -26 29 -5 21 8 -3 17 -1 21 5 3 6 1 11 -4 11 -6 0 -11 7
-11 15 0 12 4 11 20 -5 11 -11 20 -22 20 -25z m-2353 3 c-3 -8 -6 -5 -6 6 -1
11 2 17 5 13 3 -3 4 -12 1 -19z m2914 -10 c1 -18 3 -25 6 -16 4 17 33 14 33
-4 0 -5 -4 -6 -10 -3 -5 3 -10 1 -10 -4 0 -15 -30 -14 -31 2 0 6 -2 22 -3 35
-2 12 1 22 6 22 4 0 9 -15 9 -32z m63 24 c3 -5 -1 -9 -9 -9 -8 0 -12 4 -9 9 3
4 7 8 9 8 2 0 6 -4 9 -8z m-504 -12 c0 -5 -5 -10 -11 -10 -5 0 -7 5 -4 10 3 6
8 10 11 10 2 0 4 -4 4 -10z m63 -2 c3 -10 7 -10 20 0 13 11 15 10 10 -7 -5
-21 -11 -20 -53 9 -13 8 -13 10 2 10 9 0 18 -6 21 -12z m143 -1 c4 -4 -4 -7
-17 -7 -13 0 -19 -4 -14 -8 15 -11 15 -42 -1 -42 -8 0 -14 -7 -14 -15 0 -8 -4
-15 -10 -15 -13 0 -13 2 5 36 15 29 15 29 -18 35 l-32 6 33 2 c18 0 31 5 28 9
-6 10 30 9 40 -1z m341 7 c-3 -3 -12 -4 -19 -1 -8 3 -5 6 6 6 11 1 17 -2 13
-5z m-3147 -29 c-7 -8 -16 -15 -21 -15 -5 0 -6 7 -3 15 4 8 13 15 21 15 13 0
13 -3 3 -15z m3107 -7 c-3 -8 -6 -5 -6 6 -1 11 2 17 5 13 3 -3 4 -12 1 -19z
m-3027 2 c0 -5 -7 -7 -15 -4 -8 4 -15 8 -15 10 0 2 7 4 15 4 8 0 15 -4 15 -10z
m2949 -36 c4 3 7 -4 7 -14 0 -10 -3 -17 -7 -14 -4 2 -9 1 -12 -3 -2 -5 -2 -3
-1 4 2 6 -4 14 -12 17 -8 3 -14 11 -14 18 0 9 3 8 10 -2 8 -12 10 -10 11 10 2
24 2 24 6 2 2 -12 8 -20 12 -18z m122 -12 c-6 -2 -11 -10 -11 -17 0 -7 -11
-15 -25 -17 -14 -3 -25 -1 -25 3 0 5 6 9 14 9 8 0 18 5 22 12 5 8 0 9 -15 5
-13 -3 -20 -3 -17 0 3 4 1 12 -5 20 -8 9 -8 13 -1 13 6 0 13 -4 16 -9 8 -12
46 -2 47 13 1 6 4 2 6 -9 3 -10 0 -21 -6 -23z m-274 -4 c-3 -8 -6 -5 -6 6 -1
11 2 17 5 13 3 -3 4 -12 1 -19z m198 12 c3 -6 -1 -7 -9 -4 -18 7 -21 14 -7 14
6 0 13 -4 16 -10z m113 -15 c-3 -3 -9 2 -12 12 -6 14 -5 15 5 6 7 -7 10 -15 7
-18z m-691 2 c3 -4 -10 -7 -30 -7 -20 0 -37 3 -37 8 0 9 57 8 67 -1z m-112
-17 c3 -5 1 -10 -4 -10 -6 0 -11 5 -11 10 0 6 2 10 4 10 3 0 8 -4 11 -10z
m-2482 -15 c-3 -9 -8 -14 -10 -11 -3 3 -2 9 2 15 9 16 15 13 8 -4z m2454 -7
c-3 -8 -6 -5 -6 6 -1 11 2 17 5 13 3 -3 4 -12 1 -19z m-2436 -15 c-12 -20 -14
-14 -5 12 4 9 9 14 11 11 3 -2 0 -13 -6 -23z m3195 -10 c-6 -15 -9 -15 -16 -3
-6 9 -5 17 3 22 16 10 21 2 13 -19z m-869 -15 c-3 -8 -6 -5 -6 6 -1 11 2 17 5
13 3 -3 4 -12 1 -19z m893 2 c0 -5 -5 -10 -11 -10 -5 0 -7 5 -4 10 3 6 8 10
11 10 2 0 4 -4 4 -10z m-3357 -57 c-7 -2 -19 -2 -25 0 -7 3 -2 5 12 5 14 0 19
-2 13 -5z m-118 -13 c-3 -5 -1 -10 5 -10 7 0 10 -5 8 -11 -5 -14 -23 -12 -24
4 0 14 5 27 12 27 3 0 2 -4 -1 -10z m3325 -60 c0 -5 -5 -10 -11 -10 -5 0 -7 5
-4 10 3 6 8 10 11 10 2 0 4 -4 4 -10z m-110 -45 c0 -8 -7 -15 -15 -15 -9 0
-12 6 -9 15 4 8 10 15 15 15 5 0 9 -7 9 -15z m275 -25 c-3 -5 -10 -10 -16 -10
-5 0 -9 5 -9 10 0 6 7 10 16 10 8 0 12 -4 9 -10z m-295 -10 c0 -5 -2 -10 -4
-10 -3 0 -8 5 -11 10 -3 6 -1 10 4 10 6 0 11 -4 11 -10z m184 -13 c4 4 4 -1 0
-12 -4 -10 -9 -14 -12 -7 -2 7 -11 5 -24 -8 -12 -11 -25 -17 -30 -14 -4 3 -8
-7 -9 -23 0 -28 0 -28 -10 -4 -7 18 -5 26 8 36 10 8 15 17 10 21 -4 4 -7 2 -7
-5 0 -7 -4 -9 -10 -6 -5 3 -10 11 -10 16 0 6 4 8 8 5 4 -2 14 -1 22 4 9 5 20
4 29 -3 12 -10 14 -9 8 8 -7 18 -6 19 6 3 8 -10 17 -15 21 -11z m-3677 -14
c-4 -3 -1 -13 6 -22 11 -14 10 -14 -5 -2 -21 15 -23 31 -6 31 6 0 8 -3 5 -7z
m3569 -30 c-10 -10 -19 5 -10 18 6 11 8 11 12 0 2 -7 1 -15 -2 -18z m154 23
c0 -2 -8 -10 -17 -17 -16 -13 -17 -12 -4 4 13 16 21 21 21 13z m-3760 -26 c0
-5 -4 -10 -10 -10 -5 0 -10 5 -10 10 0 6 5 10 10 10 6 0 10 -4 10 -10z m-50
-32 c0 -4 -6 -8 -14 -8 -8 0 -17 4 -20 8 -2 4 4 8 15 8 10 0 19 -4 19 -8z
m3655 -158 c-3 -5 -12 -10 -18 -10 -7 0 -6 4 3 10 19 12 23 12 15 0z m-11 -86
c3 -8 2 -12 -4 -9 -6 3 -10 10 -10 16 0 14 7 11 14 -7z m-39 -14 c-3 -5 -12
-10 -18 -10 -7 0 -6 4 3 10 19 12 23 12 15 0z m159 -65 c3 -9 0 -15 -9 -15 -9
0 -12 6 -9 15 4 8 7 15 9 15 2 0 5 -7 9 -15z m-197 -45 c3 -10 2 -11 -4 -4 -4
6 -15 14 -23 17 -11 5 -9 6 4 4 11 -1 21 -9 23 -17z m-332 -120 c-3 -4 -2 -10
2 -13 5 -2 2 -2 -4 -1 -7 2 -13 -1 -13 -7 0 -6 -5 -7 -11 -3 -8 5 -6 10 5 16
9 5 13 14 10 20 -4 7 -2 8 5 4 6 -4 9 -11 6 -16z m-2982 -217 c-7 -2 -21 -2
-30 0 -10 3 -4 5 12 5 17 0 24 -2 18 -5z m107 -3 c0 -5 -5 -10 -11 -10 -5 0
-7 5 -4 10 3 6 8 10 11 10 2 0 4 -4 4 -10z"/>
<path d="M3880 1841 c0 -6 5 -13 10 -16 6 -3 10 1 10 9 0 9 -4 16 -10 16 -5 0
-10 -4 -10 -9z"/>
<path d="M3740 1816 c0 -9 5 -16 10 -16 6 0 10 4 10 9 0 6 -4 13 -10 16 -5 3
-10 -1 -10 -9z"/>
<path d="M3625 1690 c3 -5 14 -10 23 -10 15 0 15 2 2 10 -20 13 -33 13 -25 0z"/>
<path d="M3777 1289 c-4 -16 -3 -18 9 -8 7 6 11 15 8 20 -8 13 -11 11 -17 -12z"/>
<path d="M2950 3250 c-11 -8 -7 -9 15 -4 37 8 45 14 19 14 -10 0 -26 -5 -34
-10z"/>
<path d="M3085 2760 c3 -5 8 -10 11 -10 2 0 4 5 4 10 0 6 -5 10 -11 10 -5 0
-7 -4 -4 -10z"/>
<path d="M3001 2684 c0 -11 3 -14 6 -6 3 7 2 16 -1 19 -3 4 -6 -2 -5 -13z"/>
<path d="M8 2003 c7 -3 16 -2 19 1 4 3 -2 6 -13 5 -11 0 -14 -3 -6 -6z"/>
<path d="M136 1973 c-6 -14 -5 -15 5 -6 7 7 10 15 7 18 -3 3 -9 -2 -12 -12z"/>
<path d="M11 1951 c-8 -5 -9 -11 -3 -15 5 -3 12 1 16 9 6 17 6 18 -13 6z"/>
<path d="M255 1950 c4 -6 11 -8 16 -5 14 9 11 15 -7 15 -8 0 -12 -5 -9 -10z"/>
<path d="M300 1938 c0 -4 7 -8 15 -8 8 0 15 4 15 8 0 5 -7 9 -15 9 -8 0 -15
-4 -15 -9z"/>
<path d="M78 1883 c7 -3 16 -2 19 1 4 3 -2 6 -13 5 -11 0 -14 -3 -6 -6z"/>
<path d="M547 1861 c-3 -13 -1 -18 9 -14 7 2 10 11 7 19 -7 19 -10 18 -16 -5z"/>
<path d="M538 1823 c7 -3 16 -2 19 1 4 3 -2 6 -13 5 -11 0 -14 -3 -6 -6z"/>
<path d="M638 1823 c7 -3 16 -2 19 1 4 3 -2 6 -13 5 -11 0 -14 -3 -6 -6z"/>
<path d="M2919 1793 c-1 -16 0 -32 1 -38 1 -5 4 -35 6 -65 3 -30 9 -59 14 -64
6 -6 5 -17 -2 -29 -7 -15 -7 -22 3 -28 22 -14 31 -10 25 9 -3 9 -7 34 -11 56
-3 21 -8 42 -11 47 -3 5 -2 9 3 8 4 -1 18 2 30 6 28 9 21 23 -10 20 -18 -2
-23 2 -24 24 0 14 1 18 4 9 2 -10 9 -18 13 -18 6 0 6 10 0 24 -5 13 -6 27 -3
30 4 3 1 6 -5 6 -7 0 -12 7 -12 15 0 27 -20 16 -21 -12z"/>
<path d="M735 1790 c-4 -6 -3 -10 2 -9 21 4 34 -2 27 -13 -4 -7 -3 -8 4 -4 16
10 15 14 -7 26 -14 7 -22 7 -26 0z"/>
<path d="M666 1779 c2 -4 13 -7 24 -6 23 2 17 10 -10 12 -10 1 -17 -2 -14 -6z"/>
<path d="M3048 1743 c-4 -24 -4 -63 1 -63 11 1 42 50 31 50 -5 0 -10 -4 -10
-10 0 -5 -5 -10 -11 -10 -6 0 -8 9 -4 20 3 11 4 20 1 20 -3 0 -7 -3 -8 -7z"/>
<path d="M415 1720 c-3 -5 -1 -10 4 -10 6 0 11 5 11 10 0 6 -2 10 -4 10 -3 0
-8 -4 -11 -10z"/>
<path d="M721 1694 c0 -11 3 -14 6 -6 3 7 2 16 -1 19 -3 4 -6 -2 -5 -13z"/>
<path d="M2973 1674 c-3 -7 -3 -19 0 -26 3 -7 6 -3 6 10 1 13 5 21 10 17 5 -3
12 -2 15 3 3 5 -2 9 -10 9 -9 0 -18 -6 -21 -13z"/>
<path d="M3080 1681 c0 -5 7 -12 16 -15 14 -5 15 -4 4 9 -14 17 -20 19 -20 6z"/>
<path d="M366 1665 c-3 -8 -1 -15 4 -15 6 0 10 7 10 15 0 8 -2 15 -4 15 -2 0
-6 -7 -10 -15z"/>
<path d="M3030 1645 c0 -8 2 -15 4 -15 2 0 6 7 10 15 3 8 1 15 -4 15 -6 0 -10
-7 -10 -15z"/>
<path d="M3352 1637 c-26 -27 -28 -42 -6 -33 10 4 14 2 11 -6 -2 -7 -10 -12
-16 -10 -14 3 -15 -25 -1 -33 6 -3 10 1 10 9 0 10 6 13 18 10 11 -4 13 -3 5 3
-15 11 -4 27 22 31 11 2 27 10 35 18 12 12 12 14 -7 14 -12 0 -25 -4 -28 -10
-3 -5 -16 -10 -28 -10 -20 0 -20 0 -1 14 10 8 16 17 13 20 -3 3 -15 -4 -27
-17z"/>
<path d="M3315 1640 c-3 -5 -1 -10 4 -10 6 0 11 5 11 10 0 6 -2 10 -4 10 -3 0
-8 -4 -11 -10z"/>
<path d="M3476 1631 c-3 -4 4 -7 14 -6 27 2 33 10 10 12 -11 1 -22 -2 -24 -6z"/>
<path d="M3020 1601 c0 -7 -5 -9 -12 -5 -7 5 -8 3 -3 -5 5 -9 10 -10 18 -2 6
6 8 14 4 18 -4 3 -7 1 -7 -6z"/>
<path d="M3420 1586 c0 -8 4 -17 9 -20 5 -4 7 3 4 14 -6 23 -13 26 -13 6z"/>
<path d="M3716 1585 c-3 -8 -1 -15 3 -15 5 0 15 -2 23 -5 7 -3 19 4 26 15 11
18 10 20 -17 20 -16 0 -31 -6 -35 -15z"/>
<path d="M3465 1579 c-11 -17 -2 -18 19 -3 17 12 17 14 4 14 -9 0 -20 -5 -23
-11z"/>
<path d="M3210 1565 c0 -16 16 -20 24 -6 3 5 -1 11 -9 15 -9 3 -15 0 -15 -9z"/>
<path d="M2995 1560 c3 -5 8 -10 11 -10 2 0 4 5 4 10 0 6 -5 10 -11 10 -5 0
-7 -4 -4 -10z"/>
<path d="M3681 1554 c0 -11 3 -14 6 -6 3 7 2 16 -1 19 -3 4 -6 -2 -5 -13z"/>
<path d="M3827 1559 c7 -7 15 -10 18 -7 3 3 -2 9 -12 12 -14 6 -15 5 -6 -5z"/>
<path d="M3771 1534 c0 -11 3 -14 6 -6 3 7 2 16 -1 19 -3 4 -6 -2 -5 -13z"/>
<path d="M3175 1520 c3 -5 8 -10 11 -10 2 0 4 5 4 10 0 6 -5 10 -11 10 -5 0
-7 -4 -4 -10z"/>
<path d="M3370 1512 c0 -5 7 -15 15 -22 8 -7 15 -9 15 -6 0 4 -7 14 -15 22 -8
9 -15 11 -15 6z"/>
<path d="M3712 1508 c-17 -17 -15 -35 4 -42 14 -5 15 -4 5 8 -9 11 -8 17 4 30
9 9 13 16 8 16 -5 0 -14 -5 -21 -12z"/>
<path d="M3558 1495 c-8 -8 3 -55 12 -55 5 0 6 9 3 21 -4 12 0 25 8 30 12 7
11 9 -2 9 -9 0 -18 -2 -21 -5z"/>
<path d="M3771 1483 c-6 -10 -11 -12 -11 -5 0 6 -4 12 -10 12 -20 0 -4 -25 24
-37 34 -16 36 -16 36 -3 0 6 -9 10 -20 10 -18 0 -19 3 -10 20 13 25 5 27 -9 3z"/>
<path d="M3975 1490 c3 -5 10 -10 16 -10 5 0 9 5 9 10 0 6 -7 10 -16 10 -8 0
-12 -4 -9 -10z"/>
<path d="M3210 1486 c0 -2 7 -7 16 -10 8 -3 12 -2 9 4 -6 10 -25 14 -25 6z"/>
<path d="M3420 1460 c0 -5 5 -10 10 -10 6 0 10 5 10 10 0 6 -4 10 -10 10 -5 0
-10 -4 -10 -10z"/>
<path d="M3670 1430 c0 -6 7 -13 15 -17 24 -9 27 1 5 15 -13 8 -20 8 -20 2z"/>
<path d="M3300 1404 c0 -8 5 -12 10 -9 6 4 8 11 5 16 -9 14 -15 11 -15 -7z"/>
<path d="M3578 1333 c7 -3 16 -2 19 1 4 3 -2 6 -13 5 -11 0 -14 -3 -6 -6z"/>
<path d="M106 1315 c-9 -26 -7 -32 5 -12 6 10 9 21 6 23 -2 3 -7 -2 -11 -11z"/>
<path d="M51 1293 c-1 -12 -7 -24 -13 -26 -10 -4 -10 -6 0 -6 15 -1 26 23 19
41 -3 7 -6 3 -6 -9z"/>
<path d="M75 1297 c-4 -10 -5 -21 -1 -24 10 -10 18 4 13 24 -4 17 -4 17 -12 0z"/>
<path d="M3590 1300 c-12 -7 -10 -9 8 -7 12 0 22 5 22 9 0 11 -12 10 -30 -2z"/>
<path d="M2975 1250 c-4 -12 -15 -20 -28 -20 -17 0 -19 -2 -8 -9 19 -12 41 -3
41 18 0 14 2 14 10 1 8 -13 10 -13 10 2 0 25 -18 31 -25 8z"/>
<path d="M2850 1200 c-9 -6 -10 -10 -3 -10 6 0 15 5 18 10 8 12 4 12 -15 0z"/>
<path d="M2970 982 c0 -5 -10 -13 -22 -19 -19 -8 -20 -10 -4 -16 9 -4 15 -3
11 2 -3 5 4 12 15 16 20 7 28 25 10 25 -5 0 -10 -4 -10 -8z"/>
<path d="M2875 930 c-3 -5 -1 -10 4 -10 6 0 11 5 11 10 0 6 -2 10 -4 10 -3 0
-8 -4 -11 -10z"/>
<path d="M3959 895 c-1 -3 -2 -8 -3 -12 -1 -5 -5 -14 -10 -22 -7 -11 -5 -13 8
-8 10 4 20 7 22 7 3 0 2 5 -2 12 -4 6 -3 8 4 4 6 -3 13 -2 16 3 3 5 -1 12 -10
15 -19 7 -24 7 -25 1z"/>
<path d="M3063 868 c-13 -22 -12 -37 3 -31 8 3 12 8 10 11 -3 3 -1 11 5 19 8
9 8 13 1 13 -6 0 -14 -6 -19 -12z"/>
<path d="M3867 861 c13 -12 17 -13 21 -3 3 10 8 8 19 -5 13 -17 13 -17 4 3 -6
13 -20 22 -35 22 -23 0 -24 -2 -9 -17z"/>
<path d="M3694 828 c-9 -14 -2 -16 26 -8 25 6 25 6 3 12 -13 3 -26 2 -29 -4z"/>
<path d="M3480 820 c0 -5 8 -10 18 -10 15 -1 15 -2 -2 -15 -16 -12 -17 -15 -4
-15 36 0 48 11 35 31 -12 20 -47 26 -47 9z"/>
<path d="M3583 797 c0 -17 1 -26 4 -19 2 6 9 10 14 6 5 -3 9 2 9 11 0 10 5 14
13 10 6 -4 3 1 -7 9 -27 22 -31 20 -33 -17z"/>
<path d="M3801 814 c0 -11 3 -14 6 -6 3 7 2 16 -1 19 -3 4 -6 -2 -5 -13z"/>
<path d="M2970 800 c0 -5 5 -10 11 -10 5 0 7 5 4 10 -3 6 -8 10 -11 10 -2 0
-4 -4 -4 -10z"/>
<path d="M3717 796 c-3 -8 -16 -16 -29 -19 -21 -4 -21 -4 -2 -6 21 -1 52 24
42 35 -3 3 -8 -2 -11 -10z"/>
<path d="M3450 793 c-25 -10 -30 -27 -12 -42 15 -12 14 -13 -13 -8 -16 4 -25
4 -19 1 7 -3 10 -14 7 -24 -3 -11 -9 -17 -14 -14 -5 3 -6 -3 -2 -12 5 -13 3
-16 -10 -11 -8 3 -21 -1 -27 -9 -10 -11 -9 -14 3 -14 27 0 47 12 47 27 0 11 7
13 26 9 21 -6 25 -4 21 8 -8 20 2 48 14 40 5 -3 17 0 26 6 15 9 13 10 -14 8
-18 -2 -31 2 -30 7 1 6 5 9 10 8 4 -2 7 4 7 12 0 8 -1 15 -2 14 -2 0 -10 -3
-18 -6z m-10 -78 c11 -13 10 -14 -4 -9 -9 3 -16 10 -16 15 0 13 6 11 20 -6z"/>
<path d="M2875 720 c11 -5 14 -9 8 -9 -7 -1 -13 -9 -13 -19 0 -10 -4 -22 -10
-28 -6 -6 -3 -10 9 -10 12 0 17 6 13 18 -2 10 1 24 7 31 13 16 5 27 -18 26
-12 0 -11 -3 4 -9z"/>
<path d="M3150 675 c0 -9 6 -12 15 -9 8 4 15 7 15 9 0 2 -7 5 -15 9 -9 3 -15
0 -15 -9z"/>
<path d="M3307 666 c-3 -8 0 -13 6 -12 15 2 22 19 9 24 -5 1 -12 -4 -15 -12z"/>
<path d="M3260 644 c0 -8 5 -12 10 -9 6 3 10 10 10 16 0 5 -4 9 -10 9 -5 0
-10 -7 -10 -16z"/>
<path d="M3408 653 c6 -2 18 -2 25 0 6 3 1 5 -13 5 -14 0 -19 -2 -12 -5z"/>
<path d="M3063 624 c-3 -8 -9 -11 -14 -8 -5 3 -9 1 -9 -4 0 -6 7 -12 15 -16 8
-3 15 -10 15 -16 0 -6 -5 -8 -11 -4 -7 4 -10 1 -7 -6 7 -23 28 -23 28 -1 0 12
5 21 11 21 5 0 7 5 3 11 -5 8 -9 8 -14 -1 -5 -8 -10 -9 -14 -2 -12 20 15 24
36 5 14 -12 22 -14 25 -7 2 7 13 9 25 6 14 -3 19 -1 14 6 -3 6 1 15 10 20 12
7 -1 10 -45 10 -44 0 -64 -4 -68 -14z"/>
<path d="M3330 631 c0 -5 7 -12 16 -15 14 -5 15 -4 4 9 -14 17 -20 19 -20 6z"/>
<path d="M2870 619 c0 -5 5 -7 10 -4 6 3 10 8 10 11 0 2 -4 4 -10 4 -5 0 -10
-5 -10 -11z"/>
<path d="M3198 613 c7 -3 16 -2 19 1 4 3 -2 6 -13 5 -11 0 -14 -3 -6 -6z"/>
<path d="M2896 573 c6 -21 4 -25 -9 -20 -9 3 -18 -1 -21 -10 -4 -8 -13 -13
-21 -9 -9 3 -15 0 -15 -9 0 -7 -9 -17 -20 -20 -11 -4 -18 -11 -15 -16 4 -5 -2
-9 -12 -9 -14 0 -15 -2 -4 -9 15 -10 7 -31 -13 -31 -8 0 -21 -11 -30 -25 -9
-14 -23 -25 -31 -25 -9 0 -12 -6 -9 -15 4 -9 0 -15 -9 -15 -8 0 -20 -7 -27
-15 -11 -13 -8 -15 13 -15 14 0 27 5 29 12 2 6 15 13 29 15 21 3 20 1 -10 -18
-25 -15 -31 -23 -21 -29 14 -9 41 -3 37 9 -1 3 8 17 20 30 21 23 22 23 16 2
-3 -11 -13 -21 -22 -22 -11 0 -9 -3 7 -9 26 -11 29 -20 5 -14 -10 2 -25 0 -33
-6 -13 -9 -13 -11 0 -19 8 -5 18 -7 23 -4 5 3 4 -4 -2 -15 -6 -11 -9 -29 -6
-39 3 -10 -6 5 -20 32 -14 28 -23 42 -20 33 3 -13 -2 -18 -18 -19 -21 0 -21
-1 -2 -9 16 -7 17 -9 3 -9 -25 -1 -28 -14 -7 -35 17 -18 18 -18 12 3 -4 17 -2
20 11 15 10 -4 15 -13 12 -21 -3 -8 -2 -11 4 -8 5 3 7 -10 4 -32 l-4 -38 10
33 c12 38 23 44 14 7 -6 -23 -4 -24 17 -16 13 5 23 14 22 20 -2 7 5 7 22 -1
29 -13 23 -32 -8 -22 -19 6 -20 5 -9 -9 7 -8 12 -19 11 -23 -5 -31 10 -39 38
-21 20 12 25 -11 8 -37 -16 -24 -16 -24 5 -19 20 5 21 4 11 -15 -7 -13 -17
-19 -26 -16 -8 4 -15 2 -15 -3 0 -5 11 -10 25 -11 17 -1 25 3 25 14 0 8 5 12
10 9 6 -3 10 2 11 12 0 15 2 15 9 -3 4 -12 16 -24 26 -28 9 -3 156 -6 325 -6
l309 1 1 22 c1 20 2 20 8 -3 7 -24 8 -24 15 8 8 33 18 36 22 7 1 -8 -2 -15 -7
-15 -5 0 -9 -4 -9 -9 0 -4 15 -8 33 -7 27 1 33 5 29 19 -2 9 -9 17 -15 17 -6
0 -7 3 -3 7 4 5 13 8 19 8 7 0 12 5 13 10 0 6 4 18 8 27 7 15 11 14 38 -10 16
-15 24 -28 18 -30 -6 -2 -22 -14 -34 -27 l-23 -23 163 -2 164 -1 0 94 c0 85
-2 96 -22 113 -23 19 -23 19 -5 -2 16 -20 14 -34 -5 -34 -5 0 -6 5 -2 11 3 6
-5 4 -19 -5 -13 -9 -29 -16 -33 -15 -14 3 -44 -12 -44 -22 0 -4 7 -5 17 -2 11
4 14 3 9 -5 -4 -7 -18 -12 -32 -12 -13 0 -24 -5 -24 -11 0 -8 -6 -7 -17 2 -10
7 -15 10 -11 5 8 -10 -9 -46 -21 -46 -10 0 -9 26 2 36 4 4 7 12 7 18 0 6 -11
-6 -23 -26 -16 -25 -27 -34 -36 -29 -11 7 -11 10 0 14 11 4 11 6 -1 6 -10 1
-7 6 8 17 12 8 20 19 17 24 -3 4 3 11 13 15 16 7 15 8 -3 16 -14 6 -6 7 25 4
43 -5 44 -5 16 7 -26 12 -27 15 -12 27 15 12 17 12 14 0 -3 -13 13 -15 52 -4
8 2 18 4 22 4 4 1 5 8 2 16 -5 13 -8 13 -21 0 -22 -23 -25 -18 -8 14 16 32 39
52 29 27 -3 -9 -1 -16 4 -16 6 0 12 8 14 17 3 16 4 16 20 0 21 -21 32 -22 24
-2 -3 8 -1 15 5 15 6 0 7 5 3 11 -4 8 0 9 15 4 21 -6 21 -5 21 149 0 97 -4
156 -10 156 -5 0 -10 -6 -10 -12 0 -9 -4 -8 -11 2 -8 12 -9 9 -5 -11 7 -33
-16 -58 -38 -40 -11 9 -16 9 -22 0 -5 -8 -3 -9 6 -4 8 5 11 4 6 -3 -3 -6 -15
-9 -26 -7 -11 2 -24 -4 -29 -13 -5 -9 -13 -14 -17 -10 -4 4 -1 16 6 25 8 10 1
6 -14 -9 -16 -17 -38 -28 -53 -28 -26 0 -26 -1 -7 -15 16 -13 16 -14 2 -9 -10
3 -18 1 -18 -5 0 -6 -4 -11 -10 -11 -5 0 -10 7 -10 15 0 13 -2 14 -14 3 -8 -7
-12 -16 -9 -20 2 -5 -7 -8 -22 -8 -14 0 -28 -7 -31 -15 -5 -11 -11 -12 -25 -4
-15 7 -19 7 -17 -3 2 -9 -8 -12 -31 -11 -25 1 -30 -1 -20 -9 11 -7 8 -9 -8 -5
-17 4 -23 1 -23 -13 0 -10 -9 -22 -20 -25 -12 -4 -17 -11 -13 -18 3 -7 -3 -3
-15 7 -12 11 -25 16 -29 13 -3 -4 -1 -7 5 -7 7 0 12 -5 12 -11 0 -6 -7 -9 -15
-5 -9 3 -25 -4 -38 -17 -19 -19 -22 -20 -25 -4 -4 19 -32 24 -32 5 0 -6 -7 -3
-15 8 -13 16 -14 16 -9 2 4 -13 1 -18 -11 -18 -9 0 -14 -4 -10 -9 3 -5 1 -12
-5 -16 -5 -3 -10 2 -10 11 0 13 -6 10 -25 -12 -20 -23 -25 -25 -20 -9 3 11 0
8 -7 -6 -10 -21 -19 -26 -41 -23 -21 2 -38 -6 -65 -32 -26 -24 -38 -30 -44
-21 -4 6 -8 7 -8 1 0 -5 6 -16 13 -23 12 -14 11 -14 -53 5 -11 3 -20 10 -20
15 0 5 -8 9 -17 9 -16 0 -16 2 -3 10 11 8 5 9 -22 7 -20 -2 -37 -1 -36 2 2 20
-3 31 -12 26 -5 -3 -10 -1 -10 4 0 6 -7 11 -16 11 -8 0 -13 4 -10 9 3 5 -1 14
-9 21 -8 7 -15 21 -15 31 0 9 -8 25 -17 35 -20 20 -20 23 -2 35 10 6 10 11 -2
25 -11 14 -11 16 0 10 10 -6 12 -4 7 11 -4 11 -2 33 4 48 8 22 8 30 -2 37 -10
6 -10 8 2 8 13 0 13 1 0 10 -12 8 -11 10 8 10 18 0 22 6 22 30 0 17 -5 30 -10
30 -6 0 -8 -11 -4 -27z m1019 -113 c-3 -5 -12 -10 -18 -10 -7 0 -6 4 3 10 19
12 23 12 15 0z m71 -5 c-1 -8 -6 -18 -11 -22 -4 -4 -5 -2 -1 5 5 7 1 12 -11
13 -16 0 -16 1 2 9 11 5 21 9 22 9 1 1 0 -6 -1 -14z m-175 -38 c-10 -9 -11 -8
-5 6 3 10 9 15 12 12 3 -3 0 -11 -7 -18z m133 9 c-21 -15 -30 -14 -19 3 3 6
14 11 23 11 13 0 13 -2 -4 -14z m-184 -6 c0 -5 -2 -10 -4 -10 -3 0 -8 5 -11
10 -3 6 -1 10 4 10 6 0 11 -4 11 -10z m102 -25 c-4 -21 -7 -23 -19 -13 -13 10
-13 14 3 25 23 17 22 17 16 -12z m43 15 c3 -6 -1 -7 -9 -4 -18 7 -21 14 -7 14
6 0 13 -4 16 -10z m-1111 -26 c3 -8 2 -12 -4 -9 -6 3 -10 10 -10 16 0 14 7 11
14 -7z m1020 -22 c-1 -7 -2 -20 -2 -31 -2 -15 -9 -18 -41 -16 -28 2 -38 -1
-35 -9 3 -7 -1 -13 -9 -13 -20 0 -17 29 5 35 10 2 15 8 12 13 -6 11 41 23 55
14 6 -3 11 -2 11 4 0 5 -5 12 -10 14 -6 3 -5 4 2 3 7 -2 13 -8 12 -14z m-1023
-29 c-8 -15 -10 -15 -11 -2 0 17 10 32 18 25 2 -3 -1 -13 -7 -23z m896 -25
c-3 -8 -6 -5 -6 6 -1 11 2 17 5 13 3 -3 4 -12 1 -19z m-874 5 c-7 -2 -13 -12
-13 -20 0 -9 -3 -14 -6 -10 -10 10 4 37 18 36 10 0 10 -2 1 -6z m652 -3 c3 -5
1 -10 -4 -10 -6 0 -11 5 -11 10 0 6 2 10 4 10 3 0 8 -4 11 -10z m205 -5 c0 -2
-9 -3 -19 -2 -11 0 -18 5 -15 9 4 6 34 0 34 -7z m-25 -45 c4 0 1 7 -6 17 -13
15 -12 15 9 2 12 -8 22 -17 22 -22 0 -4 -4 -5 -10 -2 -9 6 -14 -8 -11 -27 0
-5 -3 -8 -9 -8 -5 0 -10 9 -10 19 0 11 -5 23 -11 27 -8 4 -9 0 -4 -15 7 -24
-10 -29 -19 -6 -6 16 -46 21 -46 5 0 -5 6 -7 14 -4 7 3 16 -2 19 -10 5 -11 0
-16 -13 -16 -10 0 -22 -5 -26 -12 -5 -7 -2 -9 8 -6 8 4 15 1 15 -6 0 -7 -12
-13 -26 -14 -18 -1 -22 1 -13 7 8 4 13 11 13 15 -1 3 -1 20 -1 36 0 28 3 30
36 30 25 0 33 3 28 13 -4 6 2 4 13 -5 11 -10 23 -18 28 -18z m-441 -55 c-4 -8
-11 -12 -17 -8 -8 5 -7 8 1 11 7 2 9 9 6 14 -4 7 -2 8 4 4 6 -4 9 -13 6 -21z
m-374 -10 c0 -8 -4 -15 -10 -15 -5 0 -10 7 -10 15 0 8 5 15 10 15 6 0 10 -7
10 -15z m926 -60 c1 -9 -6 -20 -17 -26 -11 -5 -17 -15 -13 -22 5 -9 4 -9 -6 0
-16 15 -5 44 14 37 11 -4 13 0 9 18 -3 13 -2 19 2 15 5 -4 10 -14 11 -22z
m162 0 c-3 -3 -9 2 -12 12 -6 14 -5 15 5 6 7 -7 10 -15 7 -18z m-724 -30 c-4
-8 -7 -15 -9 -15 -2 0 -5 7 -9 15 -3 9 0 15 9 15 9 0 12 -6 9 -15z m206 5 c0
-5 -4 -10 -9 -10 -6 0 -13 5 -16 10 -3 6 1 10 9 10 9 0 16 -4 16 -10z m-52
-41 c-22 -14 -31 -10 -14 7 9 8 17 21 17 27 1 7 3 4 6 -7 3 -10 -1 -22 -9 -27z
m-88 -30 c0 -8 5 -8 15 1 9 7 15 8 15 2 0 -17 -28 -22 -40 -6 -9 10 -9 14 -1
14 6 0 11 -5 11 -11z"/>
<path d="M135 580 c3 -5 8 -10 11 -10 2 0 4 5 4 10 0 6 -5 10 -11 10 -5 0 -7
-4 -4 -10z"/>
<path d="M2857 584 c-12 -13 -7 -20 13 -20 11 0 19 5 17 10 -4 13 -21 18 -30
10z"/>
<path d="M3890 565 c-8 -9 -3 -12 17 -11 17 0 27 -4 26 -12 -4 -17 14 -15 21
3 3 9 0 15 -9 15 -8 0 -15 4 -15 8 0 13 -29 10 -40 -3z"/>
<path d="M2945 560 c3 -4 14 -10 25 -13 11 -3 18 -2 15 3 -3 4 -14 10 -25 13
-11 3 -18 2 -15 -3z"/>
<path d="M190 531 c0 -5 5 -13 10 -16 6 -3 10 -2 10 4 0 5 -4 13 -10 16 -5 3
-10 2 -10 -4z"/>
<path d="M546 445 c4 -8 8 -15 10 -15 2 0 4 7 4 15 0 8 -4 15 -10 15 -5 0 -7
-7 -4 -15z"/>
<path d="M35 420 c3 -5 8 -10 11 -10 2 0 4 5 4 10 0 6 -5 10 -11 10 -5 0 -7
-4 -4 -10z"/>
<path d="M2685 419 c-4 -6 -5 -12 -2 -15 2 -3 7 2 10 11 7 17 1 20 -8 4z"/>
<path d="M908 353 c7 -3 16 -2 19 1 4 3 -2 6 -13 5 -11 0 -14 -3 -6 -6z"/>
<path d="M2630 310 c-9 -6 -10 -10 -3 -10 6 0 15 5 18 10 8 12 4 12 -15 0z"/>
<path d="M2660 286 c7 -7 13 -7 20 0 6 6 3 10 -10 10 -13 0 -16 -4 -10 -10z"/>
<path d="M3925 220 c3 -5 8 -10 11 -10 2 0 4 5 4 10 0 6 -5 10 -11 10 -5 0 -7
-4 -4 -10z"/>
<path d="M2665 130 c4 -6 11 -8 16 -5 14 9 11 15 -7 15 -8 0 -12 -5 -9 -10z"/>
<path d="M2745 130 c-30 -8 -30 -8 8 -9 20 0 37 4 37 9 0 11 -2 11 -45 0z"/>
<path d="M2774 94 c5 -13 1 -15 -19 -12 -13 3 -22 2 -20 -2 8 -13 54 -18 58
-6 6 15 -3 36 -15 36 -6 0 -7 -7 -4 -16z"/>
<path d="M2815 59 c-4 -6 -5 -12 -2 -15 2 -3 7 2 10 11 7 17 1 20 -8 4z"/>
<path d="M3695 59 c4 -6 -2 -13 -14 -16 -24 -6 -29 -22 -5 -19 25 4 46 46 23
46 -5 0 -7 -5 -4 -11z"/>
<path d="M2781 34 c0 -11 3 -14 6 -6 3 7 2 16 -1 19 -3 4 -6 -2 -5 -13z"/>
</g>
</svg>
